<mxfile host="app.diagrams.net" modified="2022-09-06T11:06:33.539Z" agent="5.0 (Macintosh; Intel Mac OS X 10_15_7) AppleWebKit/537.36 (KHTML, like Gecko) Chrome/104.0.0.0 Safari/537.36" etag="hESxw6I3gKyrjirw8bUD" version="20.2.7" type="github">
  <diagram id="UIs4J6uljXiP5wbwVIjJ" name="第 1 页">
    <mxGraphModel dx="2929" dy="2278" grid="1" gridSize="10" guides="1" tooltips="1" connect="1" arrows="1" fold="1" page="1" pageScale="1" pageWidth="827" pageHeight="1169" math="0" shadow="0">
      <root>
        <mxCell id="0" />
        <mxCell id="1" parent="0" />
        <mxCell id="4-j-rC3mQy7sCKNVuWo0-3" value="&lt;span style=&quot;color: rgb(18, 20, 22); font-size: 14px; text-align: start; background-color: initial;&quot;&gt;PredictOrderTimeParamDto&lt;br&gt;&lt;/span&gt;询T入参" style="rounded=0;whiteSpace=wrap;html=1;fillColor=#f5f5f5;fontColor=#333333;strokeColor=#666666;" vertex="1" parent="1">
          <mxGeometry x="490" y="-50" width="280" height="80" as="geometry" />
        </mxCell>
        <mxCell id="4-j-rC3mQy7sCKNVuWo0-4" value="&lt;span style=&quot;color: rgb(0, 0, 0); font-family: Helvetica; font-size: 12px; font-style: normal; font-variant-ligatures: normal; font-variant-caps: normal; font-weight: 400; letter-spacing: normal; orphans: 2; text-align: center; text-indent: 0px; text-transform: none; widows: 2; word-spacing: 0px; -webkit-text-stroke-width: 0px; background-color: rgb(248, 249, 250); text-decoration-thickness: initial; text-decoration-style: initial; text-decoration-color: initial; float: none; display: inline !important;&quot;&gt;&lt;p style=&quot;margin: 0px; font-variant-numeric: normal; font-variant-east-asian: normal; font-stretch: normal; font-size: 14px; line-height: normal; color: rgb(18, 20, 22); text-align: start;&quot; class=&quot;p1&quot;&gt;queryRetailerIdBySource&lt;/p&gt;&lt;div class=&quot;lake-content&quot;&gt;&lt;p style=&quot;margin: 0; padding: 0; min-height: 24px&quot; class=&quot;ne-p&quot; id=&quot;u1b9a4c8b&quot;&gt;&lt;span class=&quot;ne-text&quot;&gt;walleId转retailerId&lt;/span&gt;&lt;/p&gt;&lt;/div&gt;&lt;/span&gt;" style="whiteSpace=wrap;html=1;fillColor=#f8cecc;strokeColor=#b85450;" vertex="1" parent="1">
          <mxGeometry x="490" y="120" width="280" height="70" as="geometry" />
        </mxCell>
        <mxCell id="4-j-rC3mQy7sCKNVuWo0-5" value="&lt;span style=&quot;background-color: initial;&quot;&gt;queryRetailerByRetailerIdAndProductId&lt;br&gt;&lt;/span&gt;查商户详情" style="whiteSpace=wrap;html=1;fillColor=#f8cecc;strokeColor=#b85450;" vertex="1" parent="1">
          <mxGeometry x="190" y="280" width="290" height="70" as="geometry" />
        </mxCell>
        <mxCell id="4-j-rC3mQy7sCKNVuWo0-6" value="&lt;span style=&quot;text-align: left;&quot;&gt;listNearestGridIdsByCond&lt;br&gt;根据经纬度查网格&lt;br&gt;&lt;/span&gt;" style="whiteSpace=wrap;html=1;fillColor=#f8cecc;strokeColor=#b85450;" vertex="1" parent="1">
          <mxGeometry y="430" width="290" height="70" as="geometry" />
        </mxCell>
        <mxCell id="4-j-rC3mQy7sCKNVuWo0-9" value="&lt;div class=&quot;lake-content&quot;&gt;&lt;p style=&quot;margin: 0; padding: 0; min-height: 24px&quot; class=&quot;ne-p&quot; id=&quot;u72fefa2b&quot;&gt;&lt;span class=&quot;ne-text&quot;&gt;getFaultTolerateMergedTagInfo&lt;/span&gt;&lt;/p&gt;&lt;p style=&quot;margin: 0; padding: 0; min-height: 24px&quot; class=&quot;ne-p&quot; id=&quot;u72fefa2b&quot;&gt;&lt;span class=&quot;ne-text&quot;&gt;查能力标签&lt;/span&gt;&lt;/p&gt;&lt;/div&gt;" style="whiteSpace=wrap;html=1;fillColor=#f8cecc;strokeColor=#b85450;" vertex="1" parent="1">
          <mxGeometry x="490" y="280" width="280" height="70" as="geometry" />
        </mxCell>
        <mxCell id="4-j-rC3mQy7sCKNVuWo0-10" value="&lt;div class=&quot;lake-content&quot;&gt;&lt;div class=&quot;lake-content&quot;&gt;&lt;p style=&quot;margin: 0; padding: 0; min-height: 24px&quot; class=&quot;ne-p&quot; id=&quot;u19be30fd&quot;&gt;&lt;span class=&quot;ne-text&quot;&gt;getPotentialMergedTagInfo&lt;/span&gt;&lt;/p&gt;&lt;/div&gt;&lt;p style=&quot;margin: 0; padding: 0; min-height: 24px&quot; class=&quot;ne-p&quot; id=&quot;u72fefa2b&quot;&gt;&lt;span class=&quot;ne-text&quot;&gt;查能力标签&lt;/span&gt;&lt;/p&gt;&lt;/div&gt;" style="whiteSpace=wrap;html=1;fillColor=#f8cecc;strokeColor=#b85450;" vertex="1" parent="1">
          <mxGeometry x="780" y="280" width="270" height="70" as="geometry" />
        </mxCell>
        <mxCell id="4-j-rC3mQy7sCKNVuWo0-12" value="&lt;div class=&quot;lake-content&quot;&gt;&lt;p style=&quot;margin: 0; padding: 0; min-height: 24px&quot; class=&quot;ne-p&quot; id=&quot;ud795b9e6&quot;&gt;&lt;span class=&quot;ne-text&quot;&gt;batchQueryDistanceInfoByLngLat&lt;/span&gt;&lt;/p&gt;&lt;p style=&quot;margin: 0; padding: 0; min-height: 24px&quot; class=&quot;ne-p&quot; id=&quot;ud795b9e6&quot;&gt;&lt;span class=&quot;ne-text&quot;&gt;查导航数据&lt;/span&gt;&lt;/p&gt;&lt;/div&gt;" style="whiteSpace=wrap;html=1;fillColor=#d5e8d4;strokeColor=#82b366;" vertex="1" parent="1">
          <mxGeometry x="320" y="430" width="290" height="70" as="geometry" />
        </mxCell>
        <mxCell id="4-j-rC3mQy7sCKNVuWo0-14" value="" style="endArrow=open;endSize=12;dashed=1;html=1;rounded=0;exitX=0.5;exitY=0;exitDx=0;exitDy=0;" edge="1" parent="1" source="4-j-rC3mQy7sCKNVuWo0-5" target="4-j-rC3mQy7sCKNVuWo0-4">
          <mxGeometry width="160" relative="1" as="geometry">
            <mxPoint x="180" y="190" as="sourcePoint" />
            <mxPoint x="340" y="190" as="targetPoint" />
          </mxGeometry>
        </mxCell>
        <mxCell id="4-j-rC3mQy7sCKNVuWo0-15" value="" style="endArrow=open;endSize=12;dashed=1;html=1;rounded=0;exitX=0.5;exitY=0;exitDx=0;exitDy=0;entryX=0.5;entryY=1;entryDx=0;entryDy=0;" edge="1" parent="1" source="4-j-rC3mQy7sCKNVuWo0-4" target="4-j-rC3mQy7sCKNVuWo0-3">
          <mxGeometry width="160" relative="1" as="geometry">
            <mxPoint x="110" y="166.37" as="sourcePoint" />
            <mxPoint x="365" y="100.00013698630141" as="targetPoint" />
          </mxGeometry>
        </mxCell>
        <mxCell id="4-j-rC3mQy7sCKNVuWo0-16" value="&lt;span style=&quot;background-color: initial;&quot;&gt;mgetETSTimeTModel&lt;br&gt;查上楼时间&lt;br&gt;&lt;/span&gt;" style="whiteSpace=wrap;html=1;fillColor=#d5e8d4;strokeColor=#82b366;" vertex="1" parent="1">
          <mxGeometry x="860" y="120" width="290" height="70" as="geometry" />
        </mxCell>
        <mxCell id="4-j-rC3mQy7sCKNVuWo0-17" value="&lt;span style=&quot;background-color: initial;&quot;&gt;getRealtimeWeatherByLoc&lt;br&gt;&lt;/span&gt;&lt;span style=&quot;background-color: initial;&quot;&gt;经纬度查天气&lt;br&gt;&lt;/span&gt;" style="whiteSpace=wrap;html=1;fillColor=#d5e8d4;strokeColor=#82b366;" vertex="1" parent="1">
          <mxGeometry x="10" y="600" width="290" height="70" as="geometry" />
        </mxCell>
        <mxCell id="4-j-rC3mQy7sCKNVuWo0-18" value="&lt;div class=&quot;lake-content&quot;&gt;&lt;p style=&quot;margin: 0; padding: 0; min-height: 24px&quot; class=&quot;ne-p&quot; id=&quot;u7a3ac9a8&quot;&gt;&lt;span class=&quot;ne-text&quot;&gt;getRealtimeWeatherByGridIDs&lt;/span&gt;&lt;/p&gt;&lt;p style=&quot;margin: 0; padding: 0; min-height: 24px&quot; class=&quot;ne-p&quot; id=&quot;u7a3ac9a8&quot;&gt;&lt;span class=&quot;ne-text&quot;&gt;网格id查天气&lt;/span&gt;&lt;/p&gt;&lt;/div&gt;" style="whiteSpace=wrap;html=1;fillColor=#d5e8d4;strokeColor=#82b366;" vertex="1" parent="1">
          <mxGeometry x="-290" y="600" width="280" height="70" as="geometry" />
        </mxCell>
        <mxCell id="4-j-rC3mQy7sCKNVuWo0-19" value="" style="endArrow=open;endSize=12;dashed=1;html=1;rounded=0;" edge="1" parent="1" source="4-j-rC3mQy7sCKNVuWo0-6" target="4-j-rC3mQy7sCKNVuWo0-5">
          <mxGeometry width="160" relative="1" as="geometry">
            <mxPoint x="540" y="170" as="sourcePoint" />
            <mxPoint x="540" y="120" as="targetPoint" />
          </mxGeometry>
        </mxCell>
        <mxCell id="4-j-rC3mQy7sCKNVuWo0-21" value="" style="endArrow=open;endSize=12;dashed=1;html=1;rounded=0;exitX=0.5;exitY=0;exitDx=0;exitDy=0;" edge="1" parent="1" source="4-j-rC3mQy7sCKNVuWo0-10" target="4-j-rC3mQy7sCKNVuWo0-4">
          <mxGeometry width="160" relative="1" as="geometry">
            <mxPoint x="807.3600000000001" y="298.95000000000005" as="sourcePoint" />
            <mxPoint x="551.8799999999999" y="240.49" as="targetPoint" />
          </mxGeometry>
        </mxCell>
        <mxCell id="4-j-rC3mQy7sCKNVuWo0-24" value="" style="endArrow=open;endSize=12;dashed=1;html=1;rounded=0;exitX=0.5;exitY=0;exitDx=0;exitDy=0;entryX=0.5;entryY=1;entryDx=0;entryDy=0;" edge="1" parent="1" source="4-j-rC3mQy7sCKNVuWo0-9" target="4-j-rC3mQy7sCKNVuWo0-4">
          <mxGeometry width="160" relative="1" as="geometry">
            <mxPoint x="254.99999999999977" y="300" as="sourcePoint" />
            <mxPoint x="511.6666666666665" y="230" as="targetPoint" />
          </mxGeometry>
        </mxCell>
        <mxCell id="4-j-rC3mQy7sCKNVuWo0-28" value="" style="endArrow=open;endSize=12;dashed=1;html=1;rounded=0;entryX=0.5;entryY=1;entryDx=0;entryDy=0;" edge="1" parent="1" source="4-j-rC3mQy7sCKNVuWo0-12" target="4-j-rC3mQy7sCKNVuWo0-5">
          <mxGeometry width="160" relative="1" as="geometry">
            <mxPoint x="345" y="310" as="sourcePoint" />
            <mxPoint x="550.2173913043478" y="230" as="targetPoint" />
          </mxGeometry>
        </mxCell>
        <mxCell id="4-j-rC3mQy7sCKNVuWo0-29" value="" style="endArrow=open;endSize=12;dashed=1;html=1;rounded=0;exitX=0.5;exitY=0;exitDx=0;exitDy=0;entryX=0.56;entryY=0.985;entryDx=0;entryDy=0;entryPerimeter=0;" edge="1" parent="1" source="4-j-rC3mQy7sCKNVuWo0-16" target="4-j-rC3mQy7sCKNVuWo0-3">
          <mxGeometry width="160" relative="1" as="geometry">
            <mxPoint x="925" y="310.0000000000002" as="sourcePoint" />
            <mxPoint x="726.739130434783" y="230.00000000000023" as="targetPoint" />
          </mxGeometry>
        </mxCell>
        <mxCell id="4-j-rC3mQy7sCKNVuWo0-30" value="" style="endArrow=open;endSize=12;dashed=1;html=1;rounded=0;" edge="1" parent="1" source="4-j-rC3mQy7sCKNVuWo0-18" target="4-j-rC3mQy7sCKNVuWo0-6">
          <mxGeometry width="160" relative="1" as="geometry">
            <mxPoint x="345" y="660" as="sourcePoint" />
            <mxPoint x="345" y="380" as="targetPoint" />
          </mxGeometry>
        </mxCell>
        <mxCell id="4-j-rC3mQy7sCKNVuWo0-31" value="" style="endArrow=open;endSize=12;dashed=1;html=1;rounded=0;exitX=0.456;exitY=0;exitDx=0;exitDy=0;exitPerimeter=0;entryX=0.5;entryY=1;entryDx=0;entryDy=0;" edge="1" parent="1" source="4-j-rC3mQy7sCKNVuWo0-17" target="4-j-rC3mQy7sCKNVuWo0-6">
          <mxGeometry width="160" relative="1" as="geometry">
            <mxPoint x="646.5" y="660" as="sourcePoint" />
            <mxPoint x="378.4999999999998" y="380" as="targetPoint" />
          </mxGeometry>
        </mxCell>
        <mxCell id="4-j-rC3mQy7sCKNVuWo0-32" value="&lt;div class=&quot;lake-content&quot;&gt;&lt;p style=&quot;margin: 0; padding: 0; min-height: 24px&quot; class=&quot;ne-p&quot; id=&quot;u33f5e9b8&quot;&gt;&lt;span class=&quot;ne-text&quot;&gt;predictAssignOrderCarrier&lt;/span&gt;&lt;/p&gt;&lt;p style=&quot;margin: 0; padding: 0; min-height: 24px&quot; class=&quot;ne-p&quot; id=&quot;u33f5e9b8&quot;&gt;&lt;span class=&quot;ne-text&quot;&gt;分流数据&lt;/span&gt;&lt;/p&gt;&lt;/div&gt;" style="whiteSpace=wrap;html=1;fillColor=#dae8fc;strokeColor=#6c8ebf;" vertex="1" parent="1">
          <mxGeometry x="170" y="790" width="280" height="60" as="geometry" />
        </mxCell>
        <mxCell id="4-j-rC3mQy7sCKNVuWo0-33" value="" style="endArrow=open;endSize=12;dashed=1;html=1;rounded=0;entryX=0.408;entryY=1.094;entryDx=0;entryDy=0;entryPerimeter=0;" edge="1" parent="1" source="4-j-rC3mQy7sCKNVuWo0-32" target="4-j-rC3mQy7sCKNVuWo0-5">
          <mxGeometry width="160" relative="1" as="geometry">
            <mxPoint x="452.9999999999998" y="470" as="sourcePoint" />
            <mxPoint x="344.9999999999998" y="380" as="targetPoint" />
          </mxGeometry>
        </mxCell>
        <mxCell id="4-j-rC3mQy7sCKNVuWo0-34" value="" style="endArrow=open;endSize=12;dashed=1;html=1;rounded=0;entryX=0.172;entryY=1;entryDx=0;entryDy=0;exitX=0.5;exitY=0;exitDx=0;exitDy=0;entryPerimeter=0;" edge="1" parent="1" source="4-j-rC3mQy7sCKNVuWo0-32" target="4-j-rC3mQy7sCKNVuWo0-17">
          <mxGeometry width="160" relative="1" as="geometry">
            <mxPoint x="639.9999999999998" y="790" as="sourcePoint" />
            <mxPoint x="531.9999999999998" y="700" as="targetPoint" />
          </mxGeometry>
        </mxCell>
        <mxCell id="4-j-rC3mQy7sCKNVuWo0-35" value="" style="endArrow=open;endSize=12;dashed=1;html=1;rounded=0;entryX=0.452;entryY=0.971;entryDx=0;entryDy=0;entryPerimeter=0;exitX=0.5;exitY=0;exitDx=0;exitDy=0;" edge="1" parent="1" source="4-j-rC3mQy7sCKNVuWo0-32" target="4-j-rC3mQy7sCKNVuWo0-12">
          <mxGeometry width="160" relative="1" as="geometry">
            <mxPoint x="697.9999999999998" y="760" as="sourcePoint" />
            <mxPoint x="589.9999999999998" y="670" as="targetPoint" />
          </mxGeometry>
        </mxCell>
        <mxCell id="4-j-rC3mQy7sCKNVuWo0-36" value="" style="endArrow=open;endSize=12;dashed=1;html=1;rounded=0;entryX=0.413;entryY=1.018;entryDx=0;entryDy=0;entryPerimeter=0;exitX=0.5;exitY=0;exitDx=0;exitDy=0;" edge="1" parent="1" source="4-j-rC3mQy7sCKNVuWo0-32" target="4-j-rC3mQy7sCKNVuWo0-18">
          <mxGeometry width="160" relative="1" as="geometry">
            <mxPoint x="-20" y="800" as="sourcePoint" />
            <mxPoint x="69.88000000000011" y="680" as="targetPoint" />
          </mxGeometry>
        </mxCell>
        <mxCell id="4-j-rC3mQy7sCKNVuWo0-37" value="&lt;div class=&quot;lake-content&quot;&gt;&lt;p style=&quot;margin: 0; padding: 0; min-height: 24px&quot; class=&quot;ne-p&quot; id=&quot;ua2789776&quot;&gt;&lt;span class=&quot;ne-text&quot;&gt;getRegulationTimeStrategy&lt;/span&gt;&lt;/p&gt;&lt;p style=&quot;margin: 0; padding: 0; min-height: 24px&quot; class=&quot;ne-p&quot; id=&quot;ua2789776&quot;&gt;&lt;span class=&quot;ne-text&quot;&gt;订单流调控&lt;/span&gt;&lt;/p&gt;&lt;/div&gt;" style="whiteSpace=wrap;html=1;fillColor=#1ba1e2;strokeColor=#006EAF;fontColor=#ffffff;" vertex="1" parent="1">
          <mxGeometry x="700" y="435" width="280" height="60" as="geometry" />
        </mxCell>
        <mxCell id="4-j-rC3mQy7sCKNVuWo0-38" value="" style="endArrow=open;endSize=12;dashed=1;html=1;rounded=0;entryX=0.641;entryY=1.01;entryDx=0;entryDy=0;entryPerimeter=0;" edge="1" parent="1" source="4-j-rC3mQy7sCKNVuWo0-37" target="4-j-rC3mQy7sCKNVuWo0-5">
          <mxGeometry width="160" relative="1" as="geometry">
            <mxPoint x="435.4347826086955" y="440" as="sourcePoint" />
            <mxPoint x="345" y="360" as="targetPoint" />
          </mxGeometry>
        </mxCell>
        <mxCell id="4-j-rC3mQy7sCKNVuWo0-39" value="&lt;div class=&quot;lake-content&quot;&gt;&lt;p style=&quot;margin: 0; padding: 0; min-height: 24px&quot; class=&quot;ne-p&quot; id=&quot;ua2789776&quot;&gt;&lt;span style=&quot;background-color: initial;&quot;&gt;queryMerchantIndicatorData&lt;/span&gt;&lt;/p&gt;&lt;p style=&quot;margin: 0; padding: 0; min-height: 24px&quot; class=&quot;ne-p&quot; id=&quot;ua2789776&quot;&gt;商户统计数据&lt;/p&gt;&lt;/div&gt;" style="whiteSpace=wrap;html=1;fillColor=#1ba1e2;strokeColor=#006EAF;fontColor=#ffffff;" vertex="1" parent="1">
          <mxGeometry x="30" y="930" width="280" height="60" as="geometry" />
        </mxCell>
        <mxCell id="4-j-rC3mQy7sCKNVuWo0-40" value="" style="endArrow=open;endSize=12;dashed=1;html=1;rounded=0;exitX=0.5;exitY=0;exitDx=0;exitDy=0;" edge="1" parent="1" source="4-j-rC3mQy7sCKNVuWo0-39" target="4-j-rC3mQy7sCKNVuWo0-32">
          <mxGeometry width="160" relative="1" as="geometry">
            <mxPoint x="320" y="800" as="sourcePoint" />
            <mxPoint x="69.88000000000011" y="680" as="targetPoint" />
          </mxGeometry>
        </mxCell>
        <mxCell id="4-j-rC3mQy7sCKNVuWo0-41" value="&lt;div class=&quot;lake-content&quot;&gt;&lt;p style=&quot;margin: 0; padding: 0; min-height: 24px&quot; class=&quot;ne-p&quot; id=&quot;ua2789776&quot;&gt;&lt;span style=&quot;background-color: initial;&quot;&gt;get_grid_pressure_omni&lt;/span&gt;&lt;br&gt;&lt;/p&gt;&lt;p style=&quot;margin: 0; padding: 0; min-height: 24px&quot; class=&quot;ne-p&quot; id=&quot;ua2789776&quot;&gt;&lt;span style=&quot;background-color: initial;&quot;&gt;网格压力&lt;/span&gt;&lt;/p&gt;&lt;/div&gt;" style="whiteSpace=wrap;html=1;fillColor=#1ba1e2;strokeColor=#006EAF;fontColor=#ffffff;" vertex="1" parent="1">
          <mxGeometry x="-620" y="605" width="280" height="60" as="geometry" />
        </mxCell>
        <mxCell id="4-j-rC3mQy7sCKNVuWo0-42" value="" style="endArrow=open;endSize=12;dashed=1;html=1;rounded=0;exitX=0.5;exitY=0;exitDx=0;exitDy=0;" edge="1" parent="1" source="4-j-rC3mQy7sCKNVuWo0-41" target="4-j-rC3mQy7sCKNVuWo0-6">
          <mxGeometry width="160" relative="1" as="geometry">
            <mxPoint x="-79.26470588235316" y="610" as="sourcePoint" />
            <mxPoint x="94.2647058823527" y="510" as="targetPoint" />
          </mxGeometry>
        </mxCell>
        <mxCell id="4-j-rC3mQy7sCKNVuWo0-43" value="&lt;div class=&quot;lake-content&quot;&gt;&lt;div class=&quot;lake-content&quot;&gt;&lt;div class=&quot;lake-content&quot;&gt;&lt;p style=&quot;margin: 0; padding: 0; min-height: 24px&quot; class=&quot;ne-p&quot; id=&quot;u07204171&quot;&gt;&lt;span class=&quot;ne-text&quot;&gt;getSingleAreaPressureGrade&lt;/span&gt;&lt;/p&gt;&lt;p style=&quot;margin: 0; padding: 0; min-height: 24px&quot; class=&quot;ne-p&quot; id=&quot;u07204171&quot;&gt;压力等级&lt;/p&gt;&lt;/div&gt;&lt;/div&gt;&lt;/div&gt;" style="whiteSpace=wrap;html=1;fillColor=#1ba1e2;strokeColor=#006EAF;fontColor=#ffffff;" vertex="1" parent="1">
          <mxGeometry x="410" y="930" width="280" height="60" as="geometry" />
        </mxCell>
        <mxCell id="4-j-rC3mQy7sCKNVuWo0-44" value="&lt;div class=&quot;lake-content&quot;&gt;&lt;div class=&quot;lake-content&quot;&gt;&lt;div class=&quot;lake-content&quot;&gt;&lt;div class=&quot;lake-content&quot;&gt;&lt;p style=&quot;margin: 0; padding: 0; min-height: 24px&quot; class=&quot;ne-p&quot; id=&quot;uc1106e97&quot;&gt;&lt;span class=&quot;ne-text&quot;&gt;floorsNormalize&lt;/span&gt;&lt;/p&gt;&lt;p style=&quot;margin: 0; padding: 0; min-height: 24px&quot; class=&quot;ne-p&quot; id=&quot;uc1106e97&quot;&gt;楼层信息&lt;/p&gt;&lt;/div&gt;&lt;/div&gt;&lt;/div&gt;&lt;/div&gt;" style="whiteSpace=wrap;html=1;fillColor=#1ba1e2;strokeColor=#006EAF;fontColor=#ffffff;" vertex="1" parent="1">
          <mxGeometry x="1190" y="120" width="280" height="60" as="geometry" />
        </mxCell>
        <mxCell id="4-j-rC3mQy7sCKNVuWo0-45" value="" style="endArrow=open;endSize=12;dashed=1;html=1;rounded=0;exitX=0.5;exitY=0;exitDx=0;exitDy=0;entryX=0.711;entryY=0.993;entryDx=0;entryDy=0;entryPerimeter=0;" edge="1" parent="1" source="4-j-rC3mQy7sCKNVuWo0-44" target="4-j-rC3mQy7sCKNVuWo0-3">
          <mxGeometry width="160" relative="1" as="geometry">
            <mxPoint x="1015" y="130" as="sourcePoint" />
            <mxPoint x="656.8000000000002" y="38.799999999999955" as="targetPoint" />
          </mxGeometry>
        </mxCell>
        <mxCell id="4-j-rC3mQy7sCKNVuWo0-46" value="" style="endArrow=open;endSize=12;dashed=1;html=1;rounded=0;exitX=0.5;exitY=0;exitDx=0;exitDy=0;entryX=0.75;entryY=1;entryDx=0;entryDy=0;" edge="1" parent="1" source="4-j-rC3mQy7sCKNVuWo0-43" target="4-j-rC3mQy7sCKNVuWo0-32">
          <mxGeometry width="160" relative="1" as="geometry">
            <mxPoint x="180" y="940" as="sourcePoint" />
            <mxPoint x="281.818181818182" y="860" as="targetPoint" />
          </mxGeometry>
        </mxCell>
        <mxCell id="4-j-rC3mQy7sCKNVuWo0-47" value="&lt;div class=&quot;lake-content&quot;&gt;&lt;p style=&quot;margin: 0; padding: 0; min-height: 24px&quot; class=&quot;ne-p&quot; id=&quot;ua2789776&quot;&gt;&lt;span style=&quot;background-color: initial;&quot;&gt;generateOrderTag&lt;/span&gt;&lt;br&gt;&lt;/p&gt;&lt;p style=&quot;margin: 0; padding: 0; min-height: 24px&quot; class=&quot;ne-p&quot; id=&quot;ua2789776&quot;&gt;运单标签&lt;/p&gt;&lt;/div&gt;" style="whiteSpace=wrap;html=1;fillColor=#1ba1e2;strokeColor=#006EAF;fontColor=#ffffff;" vertex="1" parent="1">
          <mxGeometry x="750" y="660" width="280" height="60" as="geometry" />
        </mxCell>
      </root>
    </mxGraphModel>
  </diagram>
</mxfile>
